<svg xmlns="http://www.w3.org/2000/svg"
     xmlns:xlink="http://www.w3.org/1999/xlink"
     version="1.1"
     class=""
     pageAlignment="none"
     x="0px"
     y="0px"
     width="240px"
     height="195px"
     viewBox="0 0 240 195"
     enable-background="new 0 0 240 195"
     xml:space="preserve"
     bodyBackgroundColor="rgba(255,255,255,0)"
     preserveAspectRatio="xMinYMin meet">
    <defs/>
    <g type="LAYER" name="workspace" id="workspace" locked="true"/>
    <g id="Layer 01" type="LAYER" name="Layer 01">
        <path width="4.0261595657238445" height="0.17814865335061825" stroke-width="0" stroke-miterlimit="3" stroke="none" fill="none" d="M258.2547043010753,64.77822580645162 L262.28086386679917,64.95637445980223 "/>
        <path stroke-width="0" stroke-miterlimit="3" stroke="none" fill="none" d="M262.28086386679917,64.95637445980223 "/>
        <path width="8.709218850065781" height="0.38536366593211824" stroke-width="0" stroke-miterlimit="3" stroke="none" fill="none" d="M262.28086386679917,64.95637445980223 L270.99008271686495,65.34173812573435 "/>
        <path width="77.63424524012424" height="3.435143594695745" stroke-width="0" stroke-miterlimit="3" stroke="none" fill="none" d="M270.99008271686495,65.34173812573435 L348.6243279569892,68.7768817204301 "/>
        <path stroke-width="0" stroke-miterlimit="3" stroke="none" fill="none" d="M348.6243279569892,68.7768817204301 "/>
        <path stroke-width="0" stroke-miterlimit="3" stroke="none" fill="none" d="M348.6243279569892,68.7768817204301 "/>
        <path stroke-width="0" stroke-miterlimit="3" stroke="none" fill="none" d="M348.6243279569892,68.7768817204301 "/>
        <path stroke-width="0" stroke-miterlimit="3" stroke="none" fill="none" d="M348.6243279569892,68.7768817204301 "/>
        <path stroke-width="0" stroke-miterlimit="3" stroke="none" fill="none" d="M348.6243279569892,68.7768817204301 "/>
        <path stroke-width="0" stroke-miterlimit="3" stroke="none" fill="none" d="M258.2547043010753,64.77822580645162 "/>
        <path stroke-width="0" stroke-miterlimit="3" stroke="none" fill="none" d="M258.2547043010753,64.77822580645162 "/>
        <path stroke-width="0" stroke-miterlimit="3" stroke="none" fill="none" d="M258.2547043010753,64.77822580645162 "/>
        <path transform="matrix(1 0 0 1 -145.81565180428933 -169.74989791874293)" width="238.4025155827299" height="193.47881948461284" stroke-width="0" stroke-miterlimit="3" stroke="none" fill="#E84238" d="M194.6056337399972,171.32902496006582 L235.24904311620048,171.5129577020058 L187.3150369331858,267.5649028099751 L214.29024511838765,323.70249822242226 L296.2639794255402,170.55534393915363 L337.5013311534988,170.5999652793847 L384.89021039777236,268.2939624906562 L337.7660755356208,364.0341634237665 L297.4497536001141,363.6389053655753 L344.0628682796291,268.2939624906562 L315.6295407330649,214.34354612025248 L234.01083526041973,364.0341634237665 L192.4184546979537,363.80078065988437 L146.48769481504246,266.835843129294 L194.6056337399972,171.32902496006582 Q196.79281278204053,172.78714432142792 194.6056337399972,171.32902496006582 "/>
    </g>
</svg>